<?xml version="1.0" encoding="utf-8"?>
<!-- Generator: Adobe Illustrator 27.9.0, SVG Export Plug-In . SVG Version: 6.00 Build 0)  -->
<svg version="1.1" id="Calque_1" xmlns="http://www.w3.org/2000/svg" xmlns:xlink="http://www.w3.org/1999/xlink" x="0px" y="0px"
	 viewBox="0 0 1640 1640" style="enable-background:new 0 0 1640 1640;" xml:space="preserve">
<style type="text/css">
	.st0{opacity:0.68;}
	.st1{fill:#F6F930;}
	.st2{fill:#FA5442;}
</style>
<g class="st0">
	<path class="st1" d="M963.7,908.9l49.2-49.2c39.1-39.1,102.4-39.1,141.4,0l128.8,128.8c39.1,39.1,39.1,102.4,0,141.4l-49.2,49.2
		c-39.1,39.1-102.4,39.1-141.4,0l-128.8-128.8C924.6,1011.2,924.6,947.9,963.7,908.9z"/>
</g>
<g class="st0">
	<path class="st2" d="M1160,820L1160,820c0,187.8-152.2,340-340,340l0,0c-187.8,0-340-152.2-340-340l0,0c0-187.8,152.2-340,340-340
		l0,0C1007.8,480,1160,632.2,1160,820z"/>
</g>
</svg>
