<?xml version="1.0" encoding="utf-8"?>
<!-- Generator: Adobe Illustrator 27.9.0, SVG Export Plug-In . SVG Version: 6.00 Build 0)  -->
<svg version="1.1" id="Calque_1" xmlns="http://www.w3.org/2000/svg" xmlns:xlink="http://www.w3.org/1999/xlink" x="0px" y="0px"
	 viewBox="0 0 1920 1080" style="enable-background:new 0 0 1920 1080;" xml:space="preserve">
<style type="text/css">
	.st0{fill:#F6F930;}
</style>
<g>
	<path class="st0" d="M381.6,711c2-3,4.8-3.9,8.4-3.7c6.1,0.2,12.2,0.1,18.6,0.1c0-1.8,0-3.3,0-4.8c0-66.6,0-133.2,0-199.9
		c0-19.1,5.1-36.6,17.6-51.4c9.7-11.5,21.9-17.4,37.3-17.4c73.1,0.2,146.2,0.2,219.3,0c17.4-0.1,30.6,7.1,40.7,20.6
		c10.8,14.5,15,31.1,15,48.9c0,66.4,0,132.7,0,199.1c0,1.5,0,2.9,0,4.8c6.5,0,12.6,0.1,18.6-0.1c3.5-0.1,6.3,0.8,8.4,3.7
		c0,3,0,6,0,9c-0.2,0.7-0.6,1.4-0.7,2.1c-4.6,31.8-31.4,55.5-63.3,55.6c-85.4,0.2-170.7,0.1-256.1,0c-29.1,0-54.5-20.1-61.8-48.2
		c-0.8-3.1-1.4-6.3-2.1-9.5C381.6,717,381.6,714,381.6,711z M420.3,707.4c1.9,0,3.3,0,4.8,0c37.1,0,74.2,0,111.3,0
		c7.2,0,8.7,1.5,8.7,8.9c0,4.7,0,9.4,0,14.1c19.2,0,37.8,0,56.8,0c0-5.1,0-10,0-14.8c0-6.5,1.6-8.1,8.3-8.1c37.4,0,74.7,0,112.1,0
		c1.5,0,2.9,0,4.4,0c0.1-1.4,0.2-2.2,0.2-3.1c0-67,0-134,0-201c0-10.7-1.7-21.2-6.3-31c-8.1-17.3-20.4-27-40.8-26.9
		c-71.6,0.5-143.2,0.3-214.8,0.1c-15.2-0.1-26,6.4-34,18.7c-8.1,12.5-10.6,26.4-10.6,41.1c0.1,65.7,0,131.5,0,197.2
		C420.3,704,420.3,705.5,420.3,707.4z M753.7,719.1c-47,0-93.5,0-139.8,0c-0.2,0.5-0.4,0.7-0.4,0.9c0,4.7-0.1,9.5-0.1,14.2
		c0,6.2-1.8,8.1-8,8.1c-21.2,0-42.5,0-63.7,0c-6.4,0-8-1.6-8-8c0-5.1,0-10.1,0-15.3c-47,0-93.4,0-140.1,0c0.1,1.1,0.1,2,0.3,2.8
		c4.8,26.2,26.2,44.5,53,44.5c84.4,0.1,168.7,0.1,253.1,0c8.6,0,16.9-1.8,24.5-5.8C741.2,751.8,750.7,738,753.7,719.1z"/>
	<path class="st0" d="M573.6,501.9c35.9,0,71.7,0,107.6,0c1.2,0,2.5-0.1,3.7,0.1c3.6,0.3,5.7,2.5,5.7,5.8s-2,5.3-5.7,5.7
		c-1.2,0.1-2.5,0.1-3.7,0.1c-71.7,0-143.4,0-215.1,0c-1.6,0-3.3,0-4.8-0.3c-3.1-0.5-4.5-2.6-4.5-5.6s1.5-5,4.5-5.6
		c1.3-0.3,2.7-0.2,4.1-0.2C501.3,501.9,537.4,501.9,573.6,501.9z"/>
	<path class="st0" d="M573.2,546c-35.9,0-71.7,0-107.6,0c-1.1,0-2.3,0-3.4,0c-3.5-0.2-5.6-2.4-5.6-5.7c-0.1-3.4,1.9-5.5,5.4-5.9
		c1.1-0.1,2.2-0.1,3.4-0.1c72.1,0,144.2,0,216.3,0c6.3,0,9,1.8,8.9,6c-0.1,4-2.6,5.7-8.7,5.7C645.6,546,609.4,546,573.2,546z"/>
	<path class="st0" d="M579,612.2c0-5.9,0-11.7,0-17.6c0-4.8,1.9-7.2,5.7-7.3s5.9,2.3,5.9,7c0.1,11.5,0.1,23,0,34.5
		c0,6.2,3.4,9.7,10,9.7c6.8,0,10.4-3.5,10.4-9.9c-0.1-11.6,0-23.2,0-34.9c0-4.1,2.1-6.4,5.6-6.5c3.7-0.1,6,2.2,6,6.5
		c0.1,12.1,0.2,24.3-0.1,36.4c-0.3,11.2-7.6,18.6-19,20c-10.9,1.3-20.7-4.3-23.5-13.7c-0.7-2.4-1-4.9-1.1-7.4
		C578.9,623.5,579,617.8,579,612.2z"/>
	<path class="st0" d="M508.4,608.7c0,5.9,0.1,11.7,0,17.6c-0.2,12-9.3,20.2-21.9,20.1c-12.8-0.1-21.5-8.3-21.6-20.4
		c-0.1-11.9,0-23.7,0-35.6c0-4.5,1.9-6.8,5.6-6.9c3.8-0.1,5.8,2.2,5.8,7c0,11.4,0.1,22.7,0,34.1c0,6.7,3.8,10.4,10.9,10.1
		c6.7-0.2,9.7-3.8,9.6-10.6c-0.2-11.6,0-23.2,0.1-34.9c0.1-3.8,2.4-5.8,5.9-5.8c3.5,0.1,5.6,2.2,5.6,6.1
		C508.5,596,508.4,602.3,508.4,608.7z"/>
	<path class="st0" d="M657.8,628.7c-4.9,6.5-9.3,12.6-13.8,18.5c-3,4-8.3,3.9-9.9-0.5c-0.7-1.9-0.1-5,1.1-6.8
		c4.9-7.2,10.3-14.1,15.6-21.2c-5.2-7.2-10.3-14.2-15.2-21.4c-1.1-1.6-1.9-4.2-1.4-5.7c0.7-1.8,2.9-3.8,4.7-4
		c1.7-0.2,4.4,1.1,5.6,2.6c4.7,6,8.9,12.3,13.5,18.8c4.6-6.1,9-12,13.4-17.9c1.7-2.3,3.7-3.8,6.7-2.8c4.1,1.4,5.5,5.6,2.8,9.3
		c-4.5,6.3-9.1,12.5-13.8,18.7c-1.5,1.9-1.5,3.2-0.1,5.2c4.6,6.2,9,12.6,13.5,18.9c1.9,2.7,1.7,5.5-0.6,7.8c-2,2-4.4,2.3-6.8,0.8
		c-1.1-0.7-2-1.9-2.8-3C666.3,640.5,662.2,634.8,657.8,628.7z"/>
	<path class="st0" d="M571.2,575.9c-0.6,2.7-1,4.5-1.5,6.3c-6.5,24.5-13,48.9-19.6,73.3c-0.2,0.8-0.4,1.7-0.7,2.5
		c-1.2,3.4-4.1,5-7.3,4.2c-3-0.8-4.7-3.6-3.9-7c1.6-6.8,3.5-13.5,5.3-20.3c5.2-19.6,10.5-39.3,15.7-58.9c1.2-4.6,5.1-6.5,8.7-4.2
		C569.5,572.9,570.4,574.8,571.2,575.9z"/>
	<path class="st0" d="M519.7,615c0-8.1,0-16.2,0-24.4c0-4.7,2.1-7.1,5.8-7.1c3.8,0,5.9,2.4,6,7c0,16.1,0,32.2,0,48.3
		c0,4.5-2.2,7.2-5.8,7.2s-5.9-2.6-5.9-7.1C519.6,631,519.7,623,519.7,615z"/>
</g>
</svg>
