<?xml version="1.0" encoding="utf-8"?>
<!-- Generator: Adobe Illustrator 27.9.0, SVG Export Plug-In . SVG Version: 6.00 Build 0)  -->
<svg version="1.1" id="Calque_1" xmlns="http://www.w3.org/2000/svg" xmlns:xlink="http://www.w3.org/1999/xlink" x="0px" y="0px"
	 viewBox="0 0 358.7 386.6" style="enable-background:new 0 0 358.7 386.6;" xml:space="preserve">
<style type="text/css">
	.st0{stroke:#000000;stroke-width:2;stroke-miterlimit:10;}
</style>
<path class="st0" d="M325.5,72.3h-94.9c-2.8,0-5,2.2-5,5l0,0c0,2.8,2.2,5,5,5h94.9c8.9,0,16.2,7.2,16.2,16.2v197.3
	c0,8.9-7.2,16.2-16.2,16.2H32.2c-8.9,0-16.2-7.2-16.2-16.2V98.5c0-8.9,7.2-16.2,16.2-16.2h95.2c2.8,0,5-2.2,5-5l0,0c0-2.8-2.2-5-5-5
	H32.2C17.8,72.3,6.1,84,6.1,98.5v197.3c0,14.5,11.7,26.2,26.2,26.2h137.1c2.7,0,4.9,2.2,4.9,4.9v38.3c0,2.7-2.2,4.9-4.9,4.9h-56
	c-3.1,0-5.8,2.4-5.9,5.5c-0.1,3.2,2.5,5.9,5.7,5.9h132.5c3.1,0,5.8-2.4,5.9-5.5c0.1-3.2-2.5-5.9-5.7-5.9h-56.4
	c-2.7,0-4.9-2.2-4.9-4.9v-38.3c0-2.7,2.2-4.9,4.9-4.9h136.1c14.5,0,26.2-11.7,26.2-26.2V98.5C351.7,84,340,72.3,325.5,72.3z"/>
<path d="M179.1,5.3L179.1,5.3c-19.5,0-35.3,15.8-35.3,35.3v165c0,3.6,1.2,7.1,3.3,9.9l25,33.1c3.6,4.8,10.8,4.7,14.3,0l24.7-33.1
	c2.1-2.8,3.3-6.3,3.3-9.8v-165C214.4,21.1,198.6,5.3,179.1,5.3z M154.2,190.1V60.8c0-2.5,2-4.5,4.5-4.5h10.6c2.5,0,4.5,2,4.5,4.5
	v129.3c0,2.5-2,4.5-4.5,4.5h-10.6C156.2,194.6,154.2,192.6,154.2,190.1z M200.7,212.1l-18.8,26c-1,1.5-3.2,1.5-4.3,0.1l-20.2-26
	c-1.4-1.8-0.1-4.3,2.1-4.3h39C200.7,207.9,202,210.4,200.7,212.1z M203.4,190.1c0,2.5-2,4.5-4.5,4.5h-10.6c-2.5,0-4.5-2-4.5-4.5
	V60.8c0-2.5,2-4.5,4.5-4.5h10.6c2.5,0,4.5,2,4.5,4.5V190.1z M205.5,47.6c0,1.5-1.2,2.8-2.8,2.8h-45.9c-1.5,0-2.8-1.2-2.8-2.8V38
	c0-7.1,5.7-12.8,12.8-12.8h25.9c7.1,0,12.8,5.7,12.8,12.8L205.5,47.6L205.5,47.6z"/>
</svg>
