<?xml version="1.0" encoding="utf-8"?>
<!-- Generator: Adobe Illustrator 27.9.0, SVG Export Plug-In . SVG Version: 6.00 Build 0)  -->
<svg version="1.1" id="Calque_1" xmlns="http://www.w3.org/2000/svg" xmlns:xlink="http://www.w3.org/1999/xlink" x="0px" y="0px"
	 viewBox="0 0 358.7 386.6" style="enable-background:new 0 0 358.7 386.6;" xml:space="preserve">
<style type="text/css">
	.st0{fill:#FFFFFF;}
</style>
<path class="st0" d="M325.5,71.3h-94.9c-3.4,0-6,2.6-6,6c0,3.4,2.6,6,6,6h94.9c8.4,0,15.2,6.8,15.2,15.2v197.3
	c0,8.4-6.8,15.2-15.2,15.2H32.2c-8.4,0-15.2-6.8-15.2-15.2V98.5c0-8.4,6.8-15.2,15.2-15.2h95.2c3.4,0,6-2.6,6-6c0-3.4-2.6-6-6-6
	H32.2c-14.9,0-27.1,12.2-27.1,27.2v197.3c0,15,12.2,27.2,27.2,27.2h137.1c2.2,0,3.9,1.8,3.9,3.9v38.3c0,2.2-1.7,3.9-3.9,3.9h-56
	c-3.7,0-6.8,2.9-6.9,6.5c-0.1,1.8,0.6,3.6,1.9,4.9c1.3,1.3,3,2,4.8,2h132.5c3.7,0,6.8-2.9,6.9-6.5c0.1-1.8-0.6-3.6-1.9-4.9
	c-1.3-1.3-3-2-4.8-2h-56.4c-2.2,0-3.9-1.7-3.9-3.9v-38.3c0-2.2,1.8-3.9,3.9-3.9h136.1c15,0,27.2-12.2,27.2-27.2V98.5
	C352.7,83.5,340.5,71.3,325.5,71.3z"/>
<path class="st0" d="M179.1,5.3L179.1,5.3c-19.5,0-35.3,15.8-35.3,35.3v165c0,3.6,1.2,7.1,3.3,9.9l25,33.1c3.6,4.8,10.8,4.7,14.3,0
	l24.7-33.1c2.1-2.8,3.3-6.3,3.3-9.8v-165C214.4,21.1,198.6,5.3,179.1,5.3z M154.2,190.1V60.8c0-2.5,2-4.5,4.5-4.5h10.6
	c2.5,0,4.5,2,4.5,4.5v129.3c0,2.5-2,4.5-4.5,4.5h-10.6C156.2,194.6,154.2,192.6,154.2,190.1z M200.7,212.1l-18.8,26
	c-1,1.5-3.2,1.5-4.3,0.1l-20.2-26c-1.4-1.8-0.1-4.3,2.1-4.3h39C200.7,207.9,202,210.4,200.7,212.1z M203.4,190.1
	c0,2.5-2,4.5-4.5,4.5h-10.6c-2.5,0-4.5-2-4.5-4.5V60.8c0-2.5,2-4.5,4.5-4.5h10.6c2.5,0,4.5,2,4.5,4.5V190.1z M205.5,47.6
	c0,1.5-1.2,2.8-2.8,2.8h-45.9c-1.5,0-2.8-1.2-2.8-2.8V38c0-7.1,5.7-12.8,12.8-12.8h25.9c7.1,0,12.8,5.7,12.8,12.8L205.5,47.6
	L205.5,47.6z"/>
</svg>
