<?xml version="1.0" encoding="utf-8"?>
<!-- Generator: Adobe Illustrator 27.9.0, SVG Export Plug-In . SVG Version: 6.00 Build 0)  -->
<svg version="1.1" id="Calque_1" xmlns="http://www.w3.org/2000/svg" xmlns:xlink="http://www.w3.org/1999/xlink" x="0px" y="0px"
	 viewBox="0 0 1920 1080" style="enable-background:new 0 0 1920 1080;" xml:space="preserve">
<style type="text/css">
	.st0{fill:#F6F930;}
</style>
<g>
	<path class="st0" d="M361,768.4c-51.2,0-102.3,0-153.5,0c-4.1-3.3-6.9-7.3-6.2-13c1.4-4.2,4.1-7.1,8.3-8.5
		c4.9-0.1,9.8-0.2,14.8-0.3c5.3,0,10.7,0,16,0c4.3,0.4,8.6,0.4,12.9,0c5.6,0.1,11.2,0,16.8,0.3c2.7,0.1,3.4-1,3.3-3.5
		c-0.2-6.3-0.2-12.5-0.2-18.8c0-4.3,0-8.7,0-13c1.1-4.3-0.7-5.7-4.9-4.8c-4.4,0-8.7,0-13.1,0c-5.6,0-11.2,0-16.8,0
		c-4.4,0-8.7,0-13.1,0c-5.6,0-11.2,0-16.8,0c-4.4,0-8.7,0-13.1,0c-5.6,0-11.2,0-16.8,0c-4.4,0-8.7,0-13.1,0c-5.6,0-11.2,0-16.8,0
		c-4.3,0-8.7-0.1-13-0.1c-5.6-1-10.8-2.9-15.8-5.6c-2.2-1.9-4.4-3.7-6.6-5.6c-3.9-4.7-5.8-10.5-8.5-15.8c0-69.1,0-138.2,0-207.3
		c2.5-5.4,4.7-11,8.4-15.8c2.2-1.9,4.5-3.8,6.7-5.7c4.7-2.4,9.6-4.2,14.7-5.4c5.3-0.1,10.6-0.1,15.9-0.2c4.4,0,8.7,0,13.1,0
		c5.6,0,11.2,0,16.8,0c4.4,0,8.7,0,13.1,0c5.3,0,10.6,0,15.9,0c5.6,0,11.2,0.1,14.9,5.3c0.4,1.3,0.9,2.5,1.3,3.8
		c-0.1,3.1,0,6.3-2.1,9c-3.8,4.5-9,3.9-14,4.1c-5,0-10,0-15,0c-5,0-9.9,0-14.9,0c-5,0-10,0-15,0c-5,0-9.9,0-14.9,0
		c-3.6-0.1-7.3-0.3-10.9-0.1c-7.2,0.3-11.9,5.2-12.1,12.4c-0.1,2.1,0.1,4.3,0.2,6.5c0,5,0,10,0,14.9c0,5,0,10,0,15c0,5,0,10,0,14.9
		c0,5,0,10,0,15c0,5,0,10,0,14.9c0,5,0,10,0,15c0,5,0,10,0,14.9c0,5,0,10,0,15c0,5.3,0,10.6,0,15.9c0,4.3,0,8.7,0,13
		c0,5.6,0,11.3,0,16.9c0,4.3,0,8.7,0,13c-0.1,1-0.1,2-0.2,3c-1.2,11.1,4.2,17.1,16.7,17c57.8-0.3,115.5-0.1,173.3-0.2
		c34,0,68.1-0.1,102.1-0.2c0.3,0,0.7,0,1,0c4.5-0.2,9.2,1.1,13.6-0.8l0.2,0c2.6-0.2,4.4-1.5,5.6-3.8c4.1-4.1,2.8-9.2,2.6-14
		c0-5,0-10,0-15c0.4-5,0.4-9.9,0-14.9c0-5,0-10,0-15c0.4-5,0.4-9.9,0-14.9c0-5,0-10,0-15c0.4-5,0.4-9.9,0-14.9c0-5,0-10,0-15
		c0.4-5,0.4-9.9,0-14.9c0-5,0-10,0-15c0.4-5,0.4-9.9,0-14.9c0-5,0-10,0-15c0.4-5,0.4-9.9,0-14.9c0.1-1.8,0.2-3.6,0.2-5.4
		c-0.2-8.7-5.1-13.5-13.9-13.5c-3.1,0-6.2,0.1-9.3,0.2c-5,0-10,0-15,0c-5,0-9.9,0-14.9,0c-5,0-10,0-15,0c-5,0-9.9,0-14.9,0
		c-6.5,0.5-11.7-1.5-14.8-7.6c-0.1-1.2-0.2-2.4-0.4-3.5c0.1-1.2,0.2-2.3,0.3-3.5c3.1-6.1,8.4-7.9,14.8-7.6c5,0,10,0,15,0
		c5.3,0,10.6,0,15.9,0c4.4,0,8.7,0,13.1,0c5.6,0,11.2,0,16.8,0c4.3,0,8.7,0.1,13,0.1c5.5,1.1,10.9,2.7,15.8,5.5
		c2.2,1.9,4.4,3.8,6.6,5.6c3.9,4.7,6.3,10.2,8.5,15.8c0,69.1,0,138.2,0,207.3c-2.2,5.6-4.7,11-8.4,15.8c-2.2,1.9-4.5,3.8-6.7,5.7
		c-4.3,2.3-8.9,4-13.7,5.3c-5.6,0.1-11.3,0.2-16.9,0.3c-4.4,0-8.7,0-13.1,0c-5.6,0-11.2,0-16.8,0c-4.4,0-8.7,0-13.1,0
		c-5.6,0-11.2,0-16.8,0c-4.4,0-8.7,0-13.1,0c-5.3,0-10.6,0-15.9,0c-5,0-10,0-15,0c-5.3,0-10.6,0-15.9-0.2c-2.4-0.1-3.2,0.7-3.1,3.1
		c0.2,5.3,0.1,10.6,0.2,15.9c0,5,0,10,0,15c0.5,2.5-2.5,7.3,3.8,6.1c5,0.4,9.9,0.4,14.9,0c5,0,10,0,15,0c5,0.4,9.9,0.4,14.9,0
		c5,0.1,9.9,0.2,14.9,0.3c4.1,2.3,7.9,4.8,8.9,9.9C367.3,761.7,364.9,765.5,361,768.4z"/>
	<path class="st0" d="M264.3,381.7c13,0,25.9,0,38.9,0c3.6,1.5,7.2,2.9,10.8,4.4c8.7,6.2,14.1,14.4,14.2,25.3
		c0.1,56.9,0,113.8,0.1,170.6c0,3.5-0.7,6.4-3,9.1c-3.9,4.7-7.3,9.7-11,14.6c-0.2,0.1-0.3,0.3-0.2,0.5c-4.1,4.5-7.7,9.3-11.1,14.4
		c-2.1,1.6-3.3,3.9-4.7,6.1c-2.5,2.7-4.8,5.6-6.6,8.8c-2.1,2.2-4.4,3.8-7.5,4.3c-3.2-0.2-5.3-2.4-7.5-4.3c-1.9-3.7-4.7-6.8-7.3-10
		c-1.3-1.6-2.6-3.3-3.9-4.9c-3.3-5-6.8-9.9-11-14.3c0-0.2-0.1-0.4-0.3-0.6c-3.8-5-7.6-10-11.4-15.1c-2.3-2.9-2.6-6.2-2.5-9.8
		c0-54.6,0.1-109.1-0.1-163.7c0-7.2,1-14.1,4-20.7c2.8-4,6.1-7.6,10.1-10.5C257.7,384.7,261,383.2,264.3,381.7z M269.3,438.6
		c-3.4-0.1-6.8-0.1-10.2-0.2c-2.4-0.1-3.3,0.8-2.7,3.2c0,5,0,10,0,14.9c0,5,0,10,0,15c0,5,0,10,0,14.9c0,5,0,10,0,15
		c0,5,0,10,0,14.9c0,5,0,10,0,15c0,5,0,10,0,14.9c0,5,0,10,0,15c0,4.6,0,9.3,0,13.9c1.7,2,4,0.9,5.9,0.9
		c14.9,0.1,14.9,0.1,13.8-14.9c0-5,0-10,0-14.9c0-5,0-10,0-15c0-5,0-10,0-14.9c0-5,0-10,0-15c0-5,0-10,0-14.9c0-5,0-10,0-15
		c0-5,0-10,0-14.9c0-5,0-10,0-15C276.1,435.2,271.5,439.7,269.3,438.6z M299.2,438.6c-2.3,1-6.8-3.3-6.8,2.9c0,5,0,9.9,0,14.9
		c0,5,0,10,0,15c0,5,0,9.9,0,14.9c0,5,0,10,0,15c0,5,0,9.9,0,14.9c0,5,0,10,0,15c0,5,0,9.9,0,14.9c0,5,0,10,0,15c0,4.6,0,9.3,0,13.9
		c1.7,2,3.9,0.9,5.9,0.9c14.8,0.1,14.8,0.1,13.8-14.9c0-5,0-10,0-14.9c0-5,0-10,0-15c0-5,0-10,0-14.9c0-5,0-10,0-15c0-5,0-10,0-14.9
		c0-5,0-10,0-15c0-5,0-10,0-14.9c0-5,0-10,0-15c0.6-2.3-0.3-3.2-2.7-3.1C306,438.6,302.6,438.5,299.2,438.6z M284.3,618.1
		c4.1-3.2,6.7-7.6,9.4-11.9c4.2-4.1,7.2-9,11-14.3c-7.4,0-13.9,0-20.5,0c-5-0.4-9.9-0.4-14.9,0c-1.7-0.1-3.3-0.3-6-0.5
		c2.4,2.9,3.5,5.5,5.8,7.2c1.4,2.9,3.4,5.3,5.6,7.6C277.6,610.3,280.5,614.5,284.3,618.1z M312.3,411.7c-0.7-8.1-5.4-13.1-13.1-13.9
		c-5,0-10,0-15,0c-5-0.4-10-0.5-14.9,0c-7.4,0.7-12.4,6.1-12.8,13.9c-0.9,11-0.9,11,9.8,10.9c1,0,2-0.1,3-0.2c5,0,10,0,15,0
		c5,0,9.9,0,14.9,0c1.1,0.1,2.3,0.1,3.4,0.2C313.2,422.7,313.2,422.7,312.3,411.7z"/>
</g>
</svg>
