<?xml version="1.0" encoding="utf-8"?>
<!-- Generator: Adobe Illustrator 27.9.0, SVG Export Plug-In . SVG Version: 6.00 Build 0)  -->
<svg version="1.1" id="Calque_1" xmlns="http://www.w3.org/2000/svg" xmlns:xlink="http://www.w3.org/1999/xlink" x="0px" y="0px"
	 viewBox="0 0 1920 1080" style="enable-background:new 0 0 1920 1080;" xml:space="preserve">
<style type="text/css">
	.st0{fill:#F6F930;}
</style>
<g>
	<path class="st0" d="M410,432.5c0-5,0-9.4,0-13.9c0-7.4,0-14.7,0-22.1c0-11.3,5.7-17,17.1-17c54.3,0,108.6,0,162.8,0
		c17.3,0,34.7,0,52,0c11.3,0,17,5.7,17,17c0,10.3,0,20.7,0,31c0,1.5,0,2.9,0,4.8c4.4,0,8.4,0,12.3,0c5.4,0,10.7-0.1,16.1,0
		c8.4,0.2,13.9,5.7,14.3,14.1c0.1,1.4,0,2.7,0,4.1c0,55.8,0,111.5,0,167.3c0,10.7,0,21.4,0,32.2c0,10.6-5.5,16.2-16.1,16.2
		c-41.1,0-82.1,0-123.2,0c-1.5,0-3,0-4.9,0c1.9,7.3,3.6,14.3,5.6,21.1c0.2,0.7,1.9,1.3,2.9,1.3c5.6,0.3,11.3-0.1,16.8,0.8
		c14.3,2.4,25,15.2,25.4,29.7c0.1,4.5-1.8,6.4-6.7,6.4c-16.3,0-32.7,0-49,0c-27.8,0-55.7,0-83.5,0c-7.1,0-8.6-1.7-8-8.7
		c1.4-15.2,14.3-27.4,29.7-28.1c4.2-0.2,8.5,0,12.7-0.2c0.9,0,2.4-0.9,2.6-1.7c1.9-6.7,3.6-13.4,5.5-20.7c-1.8,0-3.2,0-4.7,0
		c-40.9,0-81.9,0-122.8,0c-11.5,0-16.8-5.3-16.8-16.6c0-66.9,0-133.7,0-200.6c0-11.5,5.2-16.7,16.7-16.7c7.2,0,14.5,0,21.7,0
		C406.9,432.5,408.3,432.5,410,432.5z M420.8,428.9c0,1.4,0,2.7,0,3.9c0,49.5,0,99.1,0,148.6c0,5.9,0.9,6.8,7,6.8
		c71.1,0,142.2,0,213.4,0c6.3,0,7.2-0.8,7.2-7.1c0-49.4,0-98.8,0-148.2c0-1.3-0.1-2.6-0.2-4C572.2,428.9,496.7,428.9,420.8,428.9z
		 M691,620.1c0-1.6,0-2.7,0-3.8c0-55.8,0-111.5,0-167.3c0-0.9,0.3-1.9-0.1-2.6c-0.7-1.1-1.8-2.9-2.8-2.9c-9.6-0.2-19.1-0.1-29-0.1
		c0,1.9,0,3.3,0,4.8c0,44.4,0,88.8,0,133.3c0,12-5.7,17.6-17.6,17.6c-71.1,0-142.3-0.1-213.4,0.1c-9.9,0-18.2-5.5-18.1-18.1
		c0.4-44.3,0.1-88.6,0.1-132.9c0-1.6,0-3.1,0-4.9c-9.1,0-17.6,0-26.1,0c-5.5,0-5.9,0.5-5.9,6.1c0,55.5,0,111,0,166.6
		c0,1.3,0,2.7,0,4.1C482.5,620.1,586.6,620.1,691,620.1z M378,631.4c0,6.2,0,11.9,0,17.6c0,6.3,0.3,6.5,6.5,6.5
		c57.6,0,115.2,0,172.9,0c42.3,0,84.6,0,126.9,0c1.2,0,2.7,0.3,3.7-0.2c1.2-0.6,2.8-1.8,2.9-2.8c0.2-7,0.1-14.1,0.1-21.2
		C586.5,631.4,482.5,631.4,378,631.4z M420.8,417.6c76.1,0,151.7,0,227.5,0c0-6.8,0-13.3,0-19.7c0-6.7-0.8-7.6-7.5-7.6
		c-70.9,0-141.7,0-212.6,0c-0.9,0-1.7,0-2.6,0c-3.2,0.1-4.8,1.7-4.8,4.9C420.8,402.6,420.8,410,420.8,417.6z M596.5,714.9
		c-0.3-1-0.4-1.8-0.7-2.6c-4.1-8.7-11.2-12.6-20.7-12.6c-20.3,0-40.6,0-60.9,0c-8.2,0-16.5-0.2-24.6,0.4
		c-8.3,0.5-15.2,6.9-16.9,14.8C513.9,714.9,555.1,714.9,596.5,714.9z M522.7,666.6c-1.9,7.3-3.8,14.6-5.7,22.1c11.9,0,23.3,0,35.2,0
		c-2-7.6-3.9-14.9-5.8-22.1C538.3,666.6,530.6,666.6,522.7,666.6z"/>
	<path class="st0" d="M596.4,504c-9.1-7-17.8-13.6-26.5-20.3c-0.7-0.5-1.4-1-2.1-1.6c-2.3-2.2-2.8-4.8-0.9-7.4
		c1.9-2.6,4.6-3,7.3-1.2c2.4,1.6,4.6,3.4,6.9,5.1c8.7,6.6,17.4,13.3,26.1,19.9c4.8,3.7,4.8,7.2,0,10.8c-10.5,8-21,16.1-31.5,24
		c-3.6,2.7-6.8,2.6-8.9-0.1c-2-2.7-1.2-5.8,2.4-8.5C578.1,518,587,511.2,596.4,504z"/>
	<path class="st0" d="M472.7,504c9.1,7,17.7,13.5,26.3,20.1c0.9,0.7,1.8,1.3,2.6,2.1c2.1,2.2,2.3,4.7,0.5,7.1
		c-1.8,2.4-4.4,2.9-7,1.3c-2.4-1.5-4.6-3.4-6.9-5.1c-8.8-6.7-17.6-13.4-26.4-20.2c-4.6-3.5-4.6-7.1-0.1-10.5
		c10.6-8.1,21.2-16.2,31.8-24.3c3.4-2.6,6.5-2.6,8.6,0s1.4,6-2,8.6C491.1,490,482.1,496.8,472.7,504z"/>
	<path class="st0" d="M551.4,463.3c-0.6,2.3-0.9,3.8-1.3,5.2c-6.9,24.8-13.9,49.6-20.8,74.4c-0.2,0.8-0.4,1.7-0.7,2.5
		c-1.2,3.1-3.8,4.6-6.8,3.6c-3.1-1-4.2-3.4-3.6-6.5c0.5-2.7,1.4-5.3,2.2-7.9c6.5-23.4,13-46.7,19.6-70.1c0.5-1.7,1.3-3.8,2.7-4.7
		c1.4-0.9,3.9-1.1,5.5-0.4C549.6,460.1,550.5,462.2,551.4,463.3z"/>
	<path class="st0" d="M584.1,409.6c-15,0-29.9,0-44.9,0c-1.4,0-3.1,0.3-4-0.4c-1.7-1.4-3.9-3.4-3.8-5.1c0-1.7,2.3-3.7,4-5
		c0.9-0.7,2.6-0.4,4-0.4c29.9,0,59.9,0,89.8,0c1.1,0,2.3-0.1,3.4,0.1c2.9,0.5,4.8,2.1,4.9,5.2c0,3.3-1.9,5-5,5.5
		c-1.1,0.2-2.2,0.1-3.4,0.1C614,409.6,599,409.6,584.1,409.6z"/>
	<path class="st0" d="M445.3,404c0.1,2.7-2.1,5-4.8,5.1c-2.9,0.1-5.4-2.2-5.3-5c0-2.7,2.3-4.9,5-4.9
		C442.9,399.2,445.2,401.3,445.3,404z"/>
	<path class="st0" d="M466.4,404.2c0,2.8-2.1,4.9-4.9,4.9c-3,0-5.1-2.2-5-5.2c0.1-2.8,2.3-4.8,5.1-4.7
		C464.4,399.3,466.5,401.4,466.4,404.2z"/>
	<path class="st0" d="M482.7,399.2c2.8,0,4.9,2.2,4.9,5s-2.1,4.9-4.9,4.9c-3,0-5.2-2.2-5.1-5.2C477.7,401.2,480,399.1,482.7,399.2z"
		/>
</g>
</svg>
