<?xml version="1.0" encoding="utf-8"?>
<!-- Generator: Adobe Illustrator 27.9.0, SVG Export Plug-In . SVG Version: 6.00 Build 0)  -->
<svg version="1.1" id="Calque_1" xmlns="http://www.w3.org/2000/svg" xmlns:xlink="http://www.w3.org/1999/xlink" x="0px" y="0px"
	 viewBox="0 0 1920 1080" style="enable-background:new 0 0 1920 1080;" xml:space="preserve">
<style type="text/css">
	.st0{fill:#F6F930;}
</style>
<g>
	<path class="st0" d="M781.4,600.4c-0.3,0.5-0.6,1-0.8,1.6c-3.2,8.8-9.7,13.5-19,13.5c-17.7,0-35.4,0-53.1,0c-4.7,0-7.2-2.1-7.1-5.7
		c0.1-3.5,2.6-5.5,7.1-5.5c17.2,0,34.4,0,51.6,0c7.5,0,10.2-2.6,10.2-10.1c0-13,0-25.9,0-39.1c-120.3,0-240.3,0-360.8,0
		c0,4.5,0,9,0,13.4c0,8.6,0,17.2,0,25.8c0,7.3,2.7,9.9,9.9,9.9c86.9,0,173.9,0,260.8,0c1.1,0,2.2,0,3.4,0c4,0.2,6.6,2.4,6.5,5.7
		c0,3.3-2.6,5.5-6.6,5.5c-17,0-33.9,0-50.9,0c-4.9,0-4.9,0-5.4,5.1c-1.4,13.1,3.5,23.6,13.3,32c1.2,1,3.1,1.5,4.7,1.7
		c2.2,0.3,4.5,0,6.7,0.2c8.2,0.7,14.1,4.5,16.8,12.6c0.8,2.6,2,5.1,2.8,7.7c1.6,5.4-1.6,10.1-7.3,10.7c-0.9,0.1-1.7,0.1-2.6,0.1
		c-47.8,0-95.5,0-143.3-0.1c-2.5,0-5.3-0.7-7.3-2c-3-1.9-3.8-5.2-2.6-8.6c1.2-3.5,2.3-7.1,3.9-10.5c2.9-6.2,8.3-9,14.9-9.9
		c0.9-0.1,1.8-0.3,2.6-0.1c7.3,1.6,11.6-2.7,15.6-7.8c7.2-9.2,9-19.4,6.5-31.1c-1.6,0-3,0-4.5,0c-42.5,0-85.1,0-127.6,0
		c-13.7,0-21.4-7.6-21.4-21.2c0-70.7,0-141.5,0-212.2c0-13.1,7.9-21,20.9-21c113.8,0,227.5,0,341.3,0c11,0,17.7,5.5,21,15.6
		C781.4,451.1,781.4,525.7,781.4,600.4z M430.3,393.4c0,1.8,0,3.1,0,4.5c0,29.7,0,59.4,0,89.1c0,1.1,0.1,2.3-0.1,3.4
		c-0.4,3.1-2.3,4.9-5.5,5.1c-2.9,0.2-5.3-2.2-5.7-5.3c-0.1-1,0-2,0-3c0-32.2,0-64.4,0-96.6c0-7.1,1.5-8.6,8.5-8.6
		c108.2,0,216.3,0,324.5,0c6.7,0,8.3,1.6,8.3,8.4c0,49.5,0,99.1,0,148.6c0,1.4,0,2.9,0,4.4c3.5,0,6.4,0,9.7,0c0-1.4,0-2.6,0-3.8
		c0-52.4,0-104.8,0-157.2c0-7.3-2.8-10.1-10.2-10.1c-113.4,0-226.8,0-340.2,0c-7.6,0-10.4,2.8-10.4,10.3c0,52.3,0,104.5,0,156.8
		c0,1.3,0,2.6,0,3.9c3.5,0,6.4,0,9.7,0c0-1.5,0-2.9,0-4.2c0-8.7,0-17.5,0-26.2c0-3.8,2.3-6.1,5.6-6.1c3.3,0,5.4,2.4,5.6,6.2
		c0,1.2,0,2.5,0,3.7c0,8.8,0,17.6,0,26.6c106.4,0,212.5,0,318.7,0c0-50.1,0-99.9,0-149.9C642.8,393.4,536.8,393.4,430.3,393.4z
		 M553.5,654.1c24.5,0,48.2,0,72.5,0c-9.1-11.5-12-24.3-9.8-38.4c-17.8,0-35.2,0-53,0C565.5,629.7,562.7,642.5,553.5,654.1z
		 M658.7,674.1c-1.1-6.8-3.1-8.6-9.4-8.6c-9.4,0-18.7,0-28.1,0c-30.3,0-60.6,0-90.9,0c-6.4,0-9.1,2.5-9.1,8.6
		C566.9,674.1,612.6,674.1,658.7,674.1z"/>
	<path class="st0" d="M589.8,574c2.4,0,4.7-0.1,7.1,0c3.2,0.1,5.2,2,5.5,5c0.3,3.1-1.4,5.6-4.5,5.8c-5.3,0.4-10.7,0.4-16,0
		c-3.1-0.2-4.8-2.7-4.5-5.8s2.2-4.9,5.4-5.1C585,573.9,587.4,574,589.8,574z"/>
	<path class="st0" d="M685.6,492.6c0,4.3,0.1,8.2,0,12s-2.2,6.1-5.6,6.1c-3.3,0-5.6-2.3-5.6-6.1c-0.1-14.1-0.1-28.2,0-42.2
		c0-5.4,4.1-7.6,9-5.1c0.8,0.4,2.1,0.5,3,0.2c8.9-2.8,16.9-0.6,22.1,6.2c4.9,6.4,5.2,15.3,0.7,22c-4.7,7.1-12.7,9.8-21.7,7.5
		C687.1,492.9,686.6,492.8,685.6,492.6z M693.4,467.2c-4.1,0-7.7,3.5-7.8,7.6c-0.1,4.2,3.6,8,7.8,8s7.9-3.8,7.8-8
		C701.1,470.7,697.5,467.2,693.4,467.2z"/>
	<path class="st0" d="M569.7,456c2.4-0.2,4.2-0.6,6-0.6c8.3,0.1,14,5.4,14.7,14.4c0.5,6.9,0.4,13.9,0.3,20.9c0,3.3-2.4,5.5-5.3,5.6
		c-3.1,0.1-5.6-2.1-5.7-5.7c-0.2-5.7,0-11.5-0.3-17.2c-0.1-2.7,0.6-6.2-3.5-6.8c-2.9-0.4-5.4,2.1-5.8,6.5
		c-0.4,5.3-0.3,10.7-0.3,16.1c-0.1,4.5-2,7-5.4,7c-3.6,0.1-5.8-2.6-5.8-7.2c0-13.8,0-27.7,0-41.5c0-4.4,2.1-7,5.5-7.1
		c3.6-0.1,5.7,2.4,5.7,7.1C569.7,450.3,569.7,452.9,569.7,456z"/>
	<path class="st0" d="M608.6,463.7c-3.5-0.9-6.4-2.2-6.2-6.3c0.2-3.7,2.7-5,6-5.6c0.8-4.4-1.5-10.6,5.9-11.3c4-0.4,5,2,5.8,11.2
		c3.5,0.5,6.4,2.1,6.2,6.2c-0.2,3.5-2.7,5.1-6.4,5.5c0,7.5,0,14.9,0,22.3c0,1.4,0,2.7,0,4.1c-0.1,3.8-2.2,6.2-5.4,6.3
		c-3.4,0.1-5.7-2.4-5.8-6.4c-0.1-4.2,0-8.5,0-12.7C608.6,472.7,608.6,468.3,608.6,463.7z"/>
	<path class="st0" d="M648.2,463.7c-3.6-0.7-6.4-2.2-6.2-6.2c0.2-3.7,2.7-5.1,6-5.5c0.8-4.5-1.6-11,6.2-11.3
		c3.8-0.2,4.8,2.2,5.4,11.2c3.5,0.5,6.4,2.1,6.2,6.2c-0.2,3.6-2.8,5.1-6.4,5.5c0,7.7,0,15.4,0,23.1c0,1.2,0,2.5,0,3.7
		c-0.2,3.5-2.4,5.9-5.4,5.9c-3.2,0.1-5.7-2.3-5.7-6c-0.1-7.5,0-14.9,0-22.4C648.2,466.5,648.2,465.1,648.2,463.7z"/>
	<path class="st0" d="M522.3,450.3c-1,2.2-1.4,3.6-2.2,4.9c-6.9,10.9-13.9,21.8-20.9,32.6c-2.2,3.4-5.4,4.3-8.2,2.4
		c-2.8-1.8-3.3-5.1-1.1-8.5c7-11,14.1-22,21.1-33c1.6-2.4,3.8-4.1,6.5-2.8C519.4,446.8,520.7,448.8,522.3,450.3z"/>
	<path class="st0" d="M518.3,492.1c-1.9-1.5-4.2-2.3-4.7-3.8c-0.7-1.8-0.6-4.6,0.3-6.2c4.1-7.1,8.7-13.9,13.2-20.8
		c2.7-4.2,5.3-8.4,8.1-12.5c2.2-3.3,5.2-4.1,8-2.4c2.9,1.7,3.6,5.1,1.4,8.5c-7.1,11.1-14.2,22.2-21.4,33.2
		C522.1,489.6,520.2,490.5,518.3,492.1z"/>
	<path class="st0" d="M472.8,450.6c3.3,0.1,5.6,2.6,5.5,6.2c-0.1,3.3-2.6,5.8-5.7,5.7c-3.2-0.1-5.7-2.9-5.5-6.3
		C467.2,452.9,469.6,450.5,472.8,450.6z"/>
	<path class="st0" d="M472.7,486.3c-3.2,0-5.7-2.8-5.6-6.2c0.1-3.3,2.5-5.7,5.6-5.7c3.2,0,5.5,2.3,5.6,5.7
		C478.4,483.7,476,486.3,472.7,486.3z"/>
</g>
</svg>
